<svg width="34" height="37" viewBox="0 0 34 37" fill="none" xmlns="http://www.w3.org/2000/svg">
<path d="M22.4699 20.7986C28.1433 20.8221 32.8324 24.8737 33.5699 30.4913C33.7638 31.9721 33.683 33.491 33.6742 34.9924C33.6698 35.6902 33.113 36.1808 32.4755 36.1867C31.8188 36.1926 31.2782 35.6814 31.2547 34.9542C31.2224 33.9288 31.2591 32.9019 31.2341 31.8751C31.1269 27.6325 28.3284 24.2552 24.2004 23.4003C23.6128 23.2783 22.9987 23.2357 22.3964 23.2328C18.9442 23.2181 15.4905 23.2181 12.0383 23.2269C7.02597 23.2401 3.22411 27.0023 3.15947 32.0058C3.14625 32.996 3.1727 33.9861 3.14185 34.9748C3.12275 35.5932 2.779 35.9899 2.22664 36.1368C1.70513 36.2748 1.27765 36.1 0.96768 35.6843C0.842812 35.5168 0.735573 35.2862 0.734104 35.0835C0.704723 32.9078 0.550475 30.7234 1.22476 28.5962C2.67029 24.0319 6.93195 20.8544 11.7283 20.803C13.547 20.7839 20.71 20.7927 22.4728 20.8001L22.4699 20.7986Z" fill="white"/>
<path d="M25.9985 9.5385C26.0602 14.3026 22.1143 18.313 17.3062 18.3733C12.479 18.435 8.45088 14.5126 8.39799 9.70009C8.34511 4.87139 12.2527 0.87562 17.0888 0.81392C21.9469 0.75369 25.9353 4.65691 25.9985 9.5385ZM17.2313 15.9347C20.7144 15.9185 23.5584 13.0583 23.5555 9.57522C23.5525 6.11419 20.6438 3.2246 17.1916 3.25104C13.6792 3.27896 10.8454 6.10537 10.8425 9.58551C10.8395 13.0862 13.7232 15.9508 17.2313 15.9347Z" fill="white"/>
</svg>
